<?xml version="1.0" encoding="UTF-8" standalone="no"?>
<!DOCTYPE svg PUBLIC "-//W3C//DTD SVG 1.1//EN"
"http://www.w3.org/Graphics/SVG/1.1/DTD/svg11.dtd">
<svg viewBox="0 0 1286 909" version="1.1" xmlns="http://www.w3.org/2000/svg" xmlns:xlink="http://www.w3.org/1999/xlink">
<defs>
<clipPath id="c0_1"><path d="M22.6,350.4V43.3H1243V350.4Z"/></clipPath>
<style type="text/css"><![CDATA[
.g0_1{
}
]]></style>
</defs>
<path fill-rule="evenodd" d="M22.6,141.4H466.3v-1.5H22.6v1.5Z" class="g0_1"/>
<path fill-rule="evenodd" d="M466.3,141.4h1.5v-1.5h-1.5v1.5Z" class="g0_1"/>
<g clip-path="url(#c0_1)">
<path fill-rule="evenodd" d="M467.8,141.4h777v-1.5h-777v1.5Z" class="g0_1"/>
</g>
<path fill-rule="evenodd" d="M22.6,247.9H466.3v-1.5H22.6v1.5Z" class="g0_1"/>
<path fill-rule="evenodd" d="M466.3,247.9h1.5v-1.5h-1.5v1.5Z" class="g0_1"/>
<g clip-path="url(#c0_1)">
<path fill-rule="evenodd" d="M467.8,247.9h777v-1.5h-777v1.5Z" class="g0_1"/>
</g>
<path fill-rule="evenodd" d="M22.6,274H466.3v-1.5H22.6V274Z" class="g0_1"/>
<path fill-rule="evenodd" d="M466.3,274h1.5v-1.5h-1.5V274Z" class="g0_1"/>
<g clip-path="url(#c0_1)">
<path fill-rule="evenodd" d="M467.8,274h777v-1.5h-777V274Z" class="g0_1"/>
</g>
<path fill-rule="evenodd" d="M22.6,353.7h.7V353h-.7v.7Z" class="g0_1"/>
<path fill-rule="evenodd" d="M22.6,353.7h.7V353h-.7v.7Z" class="g0_1"/>
<path fill-rule="evenodd" d="M23.3,353.7H277.8V353H23.3v.7Z" class="g0_1"/>
<path fill-rule="evenodd" d="M277.8,353.7h.7V353h-.7v.7Z" class="g0_1"/>
<path fill-rule="evenodd" d="M278.5,353.7H389.4V353H278.5v.7Z" class="g0_1"/>
<path fill-rule="evenodd" d="M389.4,353.7h.8V353h-.8v.7Z" class="g0_1"/>
<path fill-rule="evenodd" d="M390.2,353.7H469V353H390.2v.7Z" class="g0_1"/>
<path fill-rule="evenodd" d="M469,353.7h.8V353H469v.7Z" class="g0_1"/>
<path fill-rule="evenodd" d="M469.8,353.7H575.6V353H469.8v.7Z" class="g0_1"/>
<path fill-rule="evenodd" d="M575.6,353.7h.7V353h-.7v.7Z" class="g0_1"/>
<path fill-rule="evenodd" d="M576.3,353.7H684.8V353H576.3v.7Z" class="g0_1"/>
<path fill-rule="evenodd" d="M684.8,353.7h.8V353h-.8v.7Z" class="g0_1"/>
<path fill-rule="evenodd" d="M685.6,353.7H793V353H685.6v.7Z" class="g0_1"/>
<path fill-rule="evenodd" d="M793,353.7h.8V353H793v.7Z" class="g0_1"/>
<path fill-rule="evenodd" d="M793.8,353.7H904.1V353H793.8v.7Z" class="g0_1"/>
<path fill-rule="evenodd" d="M904.1,353.7h.8V353h-.8v.7Z" class="g0_1"/>
<path fill-rule="evenodd" d="M904.9,353.7h109.4V353H904.9v.7Z" class="g0_1"/>
<path fill-rule="evenodd" d="M1014.4,353.7h.7V353h-.7v.7Z" class="g0_1"/>
<path fill-rule="evenodd" d="M1015.1,353.7h108.5V353H1015.1v.7Z" class="g0_1"/>
<path fill-rule="evenodd" d="M1123.6,353.7h.8V353h-.8v.7Z" class="g0_1"/>
<path fill-rule="evenodd" d="M1124.4,353.7h109.4V353H1124.4v.7Z" class="g0_1"/>
<path fill-rule="evenodd" d="M1233.8,353.7h.7V353h-.7v.7Z" class="g0_1"/>
<path fill-rule="evenodd" d="M1233.8,353.7h.7V353h-.7v.7Z" class="g0_1"/>
<path fill-rule="evenodd" d="M22.6,410h.7V353.7h-.7V410Z" class="g0_1"/>
<path fill-rule="evenodd" d="M277.8,410h.7V353.7h-.7V410Z" class="g0_1"/>
<path fill-rule="evenodd" d="M389.4,410h.8V353.7h-.8V410Z" class="g0_1"/>
<path fill-rule="evenodd" d="M469,410h.8V353.7H469V410Z" class="g0_1"/>
<path fill-rule="evenodd" d="M575.6,410h.7V353.7h-.7V410Z" class="g0_1"/>
<path fill-rule="evenodd" d="M684.8,410h.8V353.7h-.8V410Z" class="g0_1"/>
<path fill-rule="evenodd" d="M793,410h.8V353.7H793V410Z" class="g0_1"/>
<path fill-rule="evenodd" d="M904.1,410h.8V353.7h-.8V410Z" class="g0_1"/>
<path fill-rule="evenodd" d="M1014.4,410h.7V353.7h-.7V410Z" class="g0_1"/>
<path fill-rule="evenodd" d="M1123.6,410h.8V353.7h-.8V410Z" class="g0_1"/>
<path fill-rule="evenodd" d="M1233.8,410h.7V353.7h-.7V410Z" class="g0_1"/>
<path fill-rule="evenodd" d="M22.6,410.7h.7V410h-.7v.7Z" class="g0_1"/>
<path fill-rule="evenodd" d="M23.3,410.7H277.8V410H23.3v.7Z" class="g0_1"/>
<path fill-rule="evenodd" d="M277.8,410.7h.7V410h-.7v.7Z" class="g0_1"/>
<path fill-rule="evenodd" d="M278.5,410.7H389.4V410H278.5v.7Z" class="g0_1"/>
<path fill-rule="evenodd" d="M389.4,410.7h.8V410h-.8v.7Z" class="g0_1"/>
<path fill-rule="evenodd" d="M390.2,410.7H469V410H390.2v.7Z" class="g0_1"/>
<path fill-rule="evenodd" d="M469,410.7h.8V410H469v.7Z" class="g0_1"/>
<path fill-rule="evenodd" d="M469.8,410.7H575.6V410H469.8v.7Z" class="g0_1"/>
<path fill-rule="evenodd" d="M575.6,410.7h.7V410h-.7v.7Z" class="g0_1"/>
<path fill-rule="evenodd" d="M576.3,410.7H684.8V410H576.3v.7Z" class="g0_1"/>
<path fill-rule="evenodd" d="M684.8,410.7h.8V410h-.8v.7Z" class="g0_1"/>
<path fill-rule="evenodd" d="M685.6,410.7H793V410H685.6v.7Z" class="g0_1"/>
<path fill-rule="evenodd" d="M793,410.7h.8V410H793v.7Z" class="g0_1"/>
<path fill-rule="evenodd" d="M793.8,410.7H904.1V410H793.8v.7Z" class="g0_1"/>
<path fill-rule="evenodd" d="M904.1,410.7h.8V410h-.8v.7Z" class="g0_1"/>
<path fill-rule="evenodd" d="M904.9,410.7h109.4V410H904.9v.7Z" class="g0_1"/>
<path fill-rule="evenodd" d="M1014.4,410.7h.7V410h-.7v.7Z" class="g0_1"/>
<path fill-rule="evenodd" d="M1015.1,410.7h108.5V410H1015.1v.7Z" class="g0_1"/>
<path fill-rule="evenodd" d="M1123.6,410.7h.8V410h-.8v.7Z" class="g0_1"/>
<path fill-rule="evenodd" d="M1124.4,410.7h109.4V410H1124.4v.7Z" class="g0_1"/>
<path fill-rule="evenodd" d="M1233.8,410.7h.7V410h-.7v.7Z" class="g0_1"/>
<path fill-rule="evenodd" d="M22.6,663.8h.7V410.7h-.7V663.8Z" class="g0_1"/>
<path fill-rule="evenodd" d="M277.8,663.8h.7V410.7h-.7V663.8Z" class="g0_1"/>
<path fill-rule="evenodd" d="M389.4,663.8h.8V410.7h-.8V663.8Z" class="g0_1"/>
<path fill-rule="evenodd" d="M469,663.8h.8V410.7H469V663.8Z" class="g0_1"/>
<path fill-rule="evenodd" d="M575.6,663.8h.7V410.7h-.7V663.8Z" class="g0_1"/>
<path fill-rule="evenodd" d="M684.8,663.8h.8V410.7h-.8V663.8Z" class="g0_1"/>
<path fill-rule="evenodd" d="M793,663.8h.8V410.7H793V663.8Z" class="g0_1"/>
<path fill-rule="evenodd" d="M904.1,663.8h.8V410.7h-.8V663.8Z" class="g0_1"/>
<path fill-rule="evenodd" d="M1014.4,663.8h.7V410.7h-.7V663.8Z" class="g0_1"/>
<path fill-rule="evenodd" d="M1123.6,663.8h.8V410.7h-.8V663.8Z" class="g0_1"/>
<path fill-rule="evenodd" d="M1233.8,663.8h.7V410.7h-.7V663.8Z" class="g0_1"/>
<path fill-rule="evenodd" d="M22.6,667.3h.7v-3.5h-.7v3.5Z" class="g0_1"/>
<path fill-rule="evenodd" d="M23.3,664.6H277.8v-.8H23.3v.8Z" class="g0_1"/>
<path fill-rule="evenodd" d="M277.8,667.3h.7v-3.5h-.7v3.5Z" class="g0_1"/>
<path fill-rule="evenodd" d="M278.5,664.6H389.4v-.8H278.5v.8Z" class="g0_1"/>
<path fill-rule="evenodd" d="M389.4,667.3h.8v-3.5h-.8v3.5Z" class="g0_1"/>
<path fill-rule="evenodd" d="M390.2,664.6H469v-.8H390.2v.8Z" class="g0_1"/>
<path fill-rule="evenodd" d="M469,667.3h.8v-3.5H469v3.5Z" class="g0_1"/>
<path fill-rule="evenodd" d="M469.8,664.6H575.6v-.8H469.8v.8Z" class="g0_1"/>
<path fill-rule="evenodd" d="M575.6,667.3h.7v-3.5h-.7v3.5Z" class="g0_1"/>
<path fill-rule="evenodd" d="M576.3,664.6H684.8v-.8H576.3v.8Z" class="g0_1"/>
<path fill-rule="evenodd" d="M684.8,667.3h.8v-3.5h-.8v3.5Z" class="g0_1"/>
<path fill-rule="evenodd" d="M685.6,664.6H793v-.8H685.6v.8Z" class="g0_1"/>
<path fill-rule="evenodd" d="M793,667.3h.8v-3.5H793v3.5Z" class="g0_1"/>
<path fill-rule="evenodd" d="M793.8,664.6H904.1v-.8H793.8v.8Z" class="g0_1"/>
<path fill-rule="evenodd" d="M904.1,667.3h.8v-3.5h-.8v3.5Z" class="g0_1"/>
<path fill-rule="evenodd" d="M904.9,664.6h108.2v-.8H904.9v.8Z" class="g0_1"/>
<path fill-rule="evenodd" d="M1013.1,667.3h3.3v-3.5h-3.3v3.5Z" class="g0_1"/>
<path fill-rule="evenodd" d="M1013.1,667.1h3.3v-3.3h-3.3v3.3Z" class="g0_1"/>
<path fill-rule="evenodd" d="M1016.4,667.1h3.3v-3.3h-3.3v3.3Z" class="g0_1"/>
<path fill-rule="evenodd" d="M1019.7,667.1h102.6v-3.3H1019.7v3.3Z" class="g0_1"/>
<path fill-rule="evenodd" d="M1122.3,667.3h3.3v-.2h-3.3v.2Z" class="g0_1"/>
<path fill-rule="evenodd" d="M1122.3,667.1h3.3v-3.3h-3.3v3.3Z" class="g0_1"/>
<path fill-rule="evenodd" d="M1125.6,667.1h3.3v-3.3h-3.3v3.3Z" class="g0_1"/>
<path fill-rule="evenodd" d="M1128.9,667.1h103.6v-3.3H1128.9v3.3Z" class="g0_1"/>
<path fill-rule="evenodd" d="M1232.5,667.3h3.3v-.2h-3.3v.2Z" class="g0_1"/>
<path fill-rule="evenodd" d="M1232.5,667.1h3.3v-3.3h-3.3v3.3Z" class="g0_1"/>
<path fill-rule="evenodd" d="M22.6,701.2h.7V667.3h-.7v33.9Z" class="g0_1"/>
<path fill-rule="evenodd" d="M22.6,702h.7v-.8h-.7v.8Z" class="g0_1"/>
<path fill-rule="evenodd" d="M22.6,702h.7v-.8h-.7v.8Z" class="g0_1"/>
<path fill-rule="evenodd" d="M23.3,702H277.8v-.8H23.3v.8Z" class="g0_1"/>
<path fill-rule="evenodd" d="M277.8,701.2h.7V667.3h-.7v33.9Z" class="g0_1"/>
<path fill-rule="evenodd" d="M277.8,702h.7v-.8h-.7v.8Z" class="g0_1"/>
<path fill-rule="evenodd" d="M278.5,702H389.4v-.8H278.5v.8Z" class="g0_1"/>
<path fill-rule="evenodd" d="M389.4,701.2h.8V667.3h-.8v33.9Z" class="g0_1"/>
<path fill-rule="evenodd" d="M389.4,702h.8v-.8h-.8v.8Z" class="g0_1"/>
<path fill-rule="evenodd" d="M390.2,702H469v-.8H390.2v.8Z" class="g0_1"/>
<path fill-rule="evenodd" d="M469,701.2h.8V667.3H469v33.9Z" class="g0_1"/>
<path fill-rule="evenodd" d="M469,702h.8v-.8H469v.8Z" class="g0_1"/>
<path fill-rule="evenodd" d="M469.8,702H575.6v-.8H469.8v.8Z" class="g0_1"/>
<path fill-rule="evenodd" d="M575.6,701.2h.7V667.3h-.7v33.9Z" class="g0_1"/>
<path fill-rule="evenodd" d="M575.6,702h.7v-.8h-.7v.8Z" class="g0_1"/>
<path fill-rule="evenodd" d="M576.3,702H684.8v-.8H576.3v.8Z" class="g0_1"/>
<path fill-rule="evenodd" d="M684.8,701.2h.8V667.3h-.8v33.9Z" class="g0_1"/>
<path fill-rule="evenodd" d="M684.8,702h.8v-.8h-.8v.8Z" class="g0_1"/>
<path fill-rule="evenodd" d="M685.6,702H793v-.8H685.6v.8Z" class="g0_1"/>
<path fill-rule="evenodd" d="M793,701.2h.8V667.3H793v33.9Z" class="g0_1"/>
<path fill-rule="evenodd" d="M793,702h.8v-.8H793v.8Z" class="g0_1"/>
<path fill-rule="evenodd" d="M793.8,702H904.1v-.8H793.8v.8Z" class="g0_1"/>
<path fill-rule="evenodd" d="M904.1,701.2h.8V667.3h-.8v33.9Z" class="g0_1"/>
<path fill-rule="evenodd" d="M904.1,702h.8v-.8h-.8v.8Z" class="g0_1"/>
<path fill-rule="evenodd" d="M904.9,702h108.2v-.8H904.9v.8Z" class="g0_1"/>
<path fill-rule="evenodd" d="M1013.1,701.2h3.3V667.3h-3.3v33.9Z" class="g0_1"/>
<path fill-rule="evenodd" d="M1013.1,704.5h3.3v-3.3h-3.3v3.3Z" class="g0_1"/>
<path fill-rule="evenodd" d="M1013.1,704.5h3.3v-3.3h-3.3v3.3Z" class="g0_1"/>
<path fill-rule="evenodd" d="M1016.4,704.5h105.9v-3.3H1016.4v3.3Z" class="g0_1"/>
<path fill-rule="evenodd" d="M1122.3,701.2h3.3V667.3h-3.3v33.9Z" class="g0_1"/>
<path fill-rule="evenodd" d="M1122.3,704.5h3.3v-3.3h-3.3v3.3Z" class="g0_1"/>
<path fill-rule="evenodd" d="M1125.6,704.5h106.9v-3.3H1125.6v3.3Z" class="g0_1"/>
<path fill-rule="evenodd" d="M1232.5,701.2h3.3V667.3h-3.3v33.9Z" class="g0_1"/>
<path fill-rule="evenodd" d="M1232.5,704.5h3.3v-3.3h-3.3v3.3Z" class="g0_1"/>
<path fill-rule="evenodd" d="M1232.5,704.5h3.3v-3.3h-3.3v3.3Z" class="g0_1"/>
</svg>