<?xml version="1.0" encoding="UTF-8" standalone="no"?>
<!DOCTYPE svg PUBLIC "-//W3C//DTD SVG 1.1//EN"
"http://www.w3.org/Graphics/SVG/1.1/DTD/svg11.dtd">
<svg viewBox="0 0 1286 909" version="1.1" xmlns="http://www.w3.org/2000/svg" xmlns:xlink="http://www.w3.org/1999/xlink">
<defs>
<style type="text/css"><![CDATA[
.g0{
}
]]></style>
</defs>
<path fill-rule="evenodd" d="M22.7,74.8H1230V73.3H22.7v1.5Z" class="g0"/>
<path fill-rule="evenodd" d="M25.7,149.6H1226.8v-.7H25.7v.7Z" class="g0"/>
<path fill-rule="evenodd" d="M22.7,147.2H1230v-1.4H22.7v1.4Z" class="g0"/>
<path fill-rule="evenodd" d="M22.7,297.4H1230V296H22.7v1.4Z" class="g0"/>
<path fill-rule="evenodd" d="M22.7,456.6H419.5v-1.5H22.7v1.5Z" class="g0"/>
<path fill-rule="evenodd" d="M419.5,456.6H421v-1.5h-1.5v1.5Z" class="g0"/>
<path fill-rule="evenodd" d="M421,456.6h808.9v-1.5H421v1.5Z" class="g0"/>
<path fill-rule="evenodd" d="M22.7,572.7H1230v-.8H22.7v.8Z" class="g0"/>
<path fill-rule="evenodd" d="M22.7,627H665v-1.5H22.7V627Z" class="g0"/>
<path fill-rule="evenodd" d="M665,630.1h1.5V627H665v3.1Z" class="g0"/>
<path fill-rule="evenodd" d="M665,627h1.5v-1.5H665V627Z" class="g0"/>
<path fill-rule="evenodd" d="M666.5,627H1230v-1.5H666.5V627Z" class="g0"/>
<path fill-rule="evenodd" d="M665,651.7h1.5V630.1H665v21.6Z" class="g0"/>
<path fill-rule="evenodd" d="M665,654.8h1.5v-3.1H665v3.1Z" class="g0"/>
<path fill-rule="evenodd" d="M665,721.2h1.5V654.8H665v66.4Z" class="g0"/>
<path fill-rule="evenodd" d="M21.6,740.3h1.5v-1.5H21.6v1.5Z" class="g0"/>
<path fill-rule="evenodd" d="M21.6,740.3h1.5v-1.5H21.6v1.5Z" class="g0"/>
<path fill-rule="evenodd" d="M23.1,740.3h.5v-1.5h-.5v1.5Z" class="g0"/>
<path fill-rule="evenodd" d="M23.6,740.3h1.5v-1.5H23.6v1.5Z" class="g0"/>
<path fill-rule="evenodd" d="M25.1,740.3h2.8v-1.5H25.1v1.5Z" class="g0"/>
<path fill-rule="evenodd" d="M27.9,740.3h1.4v-1.5H27.9v1.5Z" class="g0"/>
<path fill-rule="evenodd" d="M29.3,740.3H1186v-1.5H29.3v1.5Z" class="g0"/>
<path fill-rule="evenodd" d="M1186,740.3h1.4v-1.5H1186v1.5Z" class="g0"/>
<path fill-rule="evenodd" d="M1187.4,740.3h38.7v-1.5h-38.7v1.5Z" class="g0"/>
<path fill-rule="evenodd" d="M1226.1,740.3h1.5v-1.5h-1.5v1.5Z" class="g0"/>
<path fill-rule="evenodd" d="M1226.8,740.3h1.5v-1.5h-1.5v1.5Z" class="g0"/>
<path fill-rule="evenodd" d="M1226.8,740.3h1.5v-1.5h-1.5v1.5Z" class="g0"/>
<path fill-rule="evenodd" d="M21.6,766.3h1.5v-26H21.6v26Z" class="g0"/>
<path fill-rule="evenodd" d="M1226.8,766.3h1.5v-26h-1.5v26Z" class="g0"/>
<path fill-rule="evenodd" d="M21.6,767.9h1.5v-1.6H21.6v1.6Z" class="g0"/>
<path fill-rule="evenodd" d="M1226.8,767.9h1.5v-1.6h-1.5v1.6Z" class="g0"/>
<path fill-rule="evenodd" d="M21.6,794h1.5V767.9H21.6V794Z" class="g0"/>
<path fill-rule="evenodd" d="M1226.8,794h1.5V767.9h-1.5V794Z" class="g0"/>
<path fill-rule="evenodd" d="M21.6,806.7h1.5V794H21.6v12.7Z" class="g0"/>
<path fill-rule="evenodd" d="M1226.8,806.7h1.5V794h-1.5v12.7Z" class="g0"/>
<path fill-rule="evenodd" d="M21.6,832.7h1.5v-26H21.6v26Z" class="g0"/>
<path fill-rule="evenodd" d="M1226.8,832.7h1.5v-26h-1.5v26Z" class="g0"/>
<path fill-rule="evenodd" d="M21.6,834.7h1.5v-2H21.6v2Z" class="g0"/>
<path fill-rule="evenodd" d="M21.6,836.2h1.5v-1.5H21.6v1.5Z" class="g0"/>
<path fill-rule="evenodd" d="M21.6,836.2h1.5v-1.5H21.6v1.5Z" class="g0"/>
<path fill-rule="evenodd" d="M23.1,836.2h.5v-1.5h-.5v1.5Z" class="g0"/>
<path fill-rule="evenodd" d="M22.6,836.2H24v-1.5H22.6v1.5Z" class="g0"/>
<path fill-rule="evenodd" d="M24,836.2h3.9v-1.5H24v1.5Z" class="g0"/>
<path fill-rule="evenodd" d="M26.8,836.2h1.4v-1.5H26.8v1.5Z" class="g0"/>
<path fill-rule="evenodd" d="M28.2,836.2h571v-1.5H28.2v1.5Z" class="g0"/>
<path fill-rule="evenodd" d="M598.1,836.2h1.5v-1.5h-1.5v1.5Z" class="g0"/>
<path fill-rule="evenodd" d="M599.6,836.2h69.3v-1.5H599.6v1.5Z" class="g0"/>
<path fill-rule="evenodd" d="M667.8,836.2h1.4v-1.5h-1.4v1.5Z" class="g0"/>
<path fill-rule="evenodd" d="M669.2,836.2H816.3v-1.5H669.2v1.5Z" class="g0"/>
<path fill-rule="evenodd" d="M815.2,836.2h1.5v-1.5h-1.5v1.5Z" class="g0"/>
<path fill-rule="evenodd" d="M816.7,836.2h.7v-1.5h-.7v1.5Z" class="g0"/>
<path fill-rule="evenodd" d="M816.3,836.2h1.5v-1.5h-1.5v1.5Z" class="g0"/>
<path fill-rule="evenodd" d="M817.8,836.2h368.1v-1.5H817.8v1.5Z" class="g0"/>
<path fill-rule="evenodd" d="M1184.9,836.2h1.4v-1.5h-1.4v1.5Z" class="g0"/>
<path fill-rule="evenodd" d="M1186.3,836.2h39.8v-1.5h-39.8v1.5Z" class="g0"/>
<path fill-rule="evenodd" d="M1225,836.2h1.5v-1.5H1225v1.5Z" class="g0"/>
<path fill-rule="evenodd" d="M1226.5,836.2h.3v-1.5h-.3v1.5Z" class="g0"/>
<path fill-rule="evenodd" d="M1226.8,834.7h1.5v-2h-1.5v2Z" class="g0"/>
<path fill-rule="evenodd" d="M1226.8,836.2h1.5v-1.5h-1.5v1.5Z" class="g0"/>
<path fill-rule="evenodd" d="M1226.8,836.2h1.5v-1.5h-1.5v1.5Z" class="g0"/>
</svg>